<mxfile host="app.diagrams.net" modified="2022-07-03T19:27:04.336Z" agent="5.0 (Windows NT 10.0; Win64; x64) AppleWebKit/537.36 (KHTML, like Gecko) Chrome/103.0.0.0 Safari/537.36" etag="YNVzQBbi5LqoOc0FmkcW" version="20.0.4" type="github" pages="3">
  <diagram id="-CiU27pWFB98loKzCeVX" name="혈당량 조절">
    <mxGraphModel dx="1106" dy="990" grid="1" gridSize="10" guides="1" tooltips="1" connect="1" arrows="1" fold="1" page="1" pageScale="1" pageWidth="827" pageHeight="1169" math="0" shadow="0">
      <root>
        <mxCell id="0" />
        <mxCell id="1" parent="0" />
        <mxCell id="36XTxiDIFt-cpU3XtYKq-56" value="" style="edgeStyle=orthogonalEdgeStyle;rounded=0;orthogonalLoop=1;jettySize=auto;html=1;strokeColor=default;" edge="1" parent="1" source="36XTxiDIFt-cpU3XtYKq-1">
          <mxGeometry relative="1" as="geometry">
            <mxPoint x="410" y="110" as="targetPoint" />
          </mxGeometry>
        </mxCell>
        <mxCell id="36XTxiDIFt-cpU3XtYKq-1" value="시작" style="rounded=1;whiteSpace=wrap;html=1;" vertex="1" parent="1">
          <mxGeometry x="350" y="10" width="120" height="60" as="geometry" />
        </mxCell>
        <mxCell id="36XTxiDIFt-cpU3XtYKq-30" value="" style="edgeStyle=orthogonalEdgeStyle;rounded=0;orthogonalLoop=1;jettySize=auto;html=1;strokeColor=default;" edge="1" parent="1">
          <mxGeometry relative="1" as="geometry">
            <mxPoint x="410" y="300" as="sourcePoint" />
            <mxPoint x="410" y="370" as="targetPoint" />
          </mxGeometry>
        </mxCell>
        <mxCell id="36XTxiDIFt-cpU3XtYKq-33" value="참" style="text;html=1;align=center;verticalAlign=middle;resizable=0;points=[];autosize=1;strokeColor=none;fillColor=none;" vertex="1" parent="1">
          <mxGeometry x="450" y="350" width="40" height="30" as="geometry" />
        </mxCell>
        <mxCell id="36XTxiDIFt-cpU3XtYKq-59" value="" style="edgeStyle=orthogonalEdgeStyle;rounded=0;orthogonalLoop=1;jettySize=auto;html=1;strokeColor=default;entryX=0.5;entryY=0;entryDx=0;entryDy=0;" edge="1" parent="1" source="36XTxiDIFt-cpU3XtYKq-36" target="36XTxiDIFt-cpU3XtYKq-43">
          <mxGeometry relative="1" as="geometry" />
        </mxCell>
        <mxCell id="36XTxiDIFt-cpU3XtYKq-36" value="공복 혈당 x 입력" style="shape=parallelogram;perimeter=parallelogramPerimeter;whiteSpace=wrap;html=1;fixedSize=1;" vertex="1" parent="1">
          <mxGeometry x="350" y="240" width="120" height="60" as="geometry" />
        </mxCell>
        <mxCell id="36XTxiDIFt-cpU3XtYKq-40" value="거짓" style="text;html=1;align=center;verticalAlign=middle;resizable=0;points=[];autosize=1;strokeColor=none;fillColor=none;" vertex="1" parent="1">
          <mxGeometry x="360" y="455" width="50" height="30" as="geometry" />
        </mxCell>
        <mxCell id="36XTxiDIFt-cpU3XtYKq-45" value="" style="rounded=0;orthogonalLoop=1;jettySize=auto;html=1;strokeColor=default;edgeStyle=orthogonalEdgeStyle;entryX=1;entryY=0.5;entryDx=0;entryDy=0;" edge="1" parent="1" source="36XTxiDIFt-cpU3XtYKq-43" target="36XTxiDIFt-cpU3XtYKq-1">
          <mxGeometry relative="1" as="geometry">
            <mxPoint x="470" y="60" as="targetPoint" />
            <Array as="points">
              <mxPoint x="490" y="390" />
              <mxPoint x="490" y="40" />
            </Array>
          </mxGeometry>
        </mxCell>
        <mxCell id="36XTxiDIFt-cpU3XtYKq-48" value="" style="edgeStyle=orthogonalEdgeStyle;rounded=0;orthogonalLoop=1;jettySize=auto;html=1;strokeColor=default;" edge="1" parent="1" source="36XTxiDIFt-cpU3XtYKq-43" target="36XTxiDIFt-cpU3XtYKq-47">
          <mxGeometry relative="1" as="geometry" />
        </mxCell>
        <mxCell id="36XTxiDIFt-cpU3XtYKq-43" value="70&lt;span style=&quot;color: rgb(32, 33, 36); font-family: &amp;quot;Apple SD Gothic Neo&amp;quot;, arial, sans-serif; font-size: 16px; text-align: left; background-color: rgb(255, 255, 255);&quot;&gt;≤&lt;/span&gt;x&lt;span style=&quot;color: rgb(32, 33, 36); font-family: &amp;quot;Apple SD Gothic Neo&amp;quot;, arial, sans-serif; font-size: 16px; text-align: left; background-color: rgb(255, 255, 255);&quot;&gt;≤&lt;/span&gt;90?" style="rhombus;whiteSpace=wrap;html=1;" vertex="1" parent="1">
          <mxGeometry x="350" y="350" width="120" height="80" as="geometry" />
        </mxCell>
        <mxCell id="36XTxiDIFt-cpU3XtYKq-50" value="" style="edgeStyle=orthogonalEdgeStyle;rounded=0;orthogonalLoop=1;jettySize=auto;html=1;strokeColor=default;" edge="1" parent="1" source="36XTxiDIFt-cpU3XtYKq-47" target="36XTxiDIFt-cpU3XtYKq-49">
          <mxGeometry relative="1" as="geometry" />
        </mxCell>
        <mxCell id="36XTxiDIFt-cpU3XtYKq-53" value="" style="edgeStyle=orthogonalEdgeStyle;rounded=0;orthogonalLoop=1;jettySize=auto;html=1;strokeColor=default;" edge="1" parent="1" source="36XTxiDIFt-cpU3XtYKq-47" target="36XTxiDIFt-cpU3XtYKq-52">
          <mxGeometry relative="1" as="geometry" />
        </mxCell>
        <mxCell id="36XTxiDIFt-cpU3XtYKq-47" value="x&amp;lt;70?" style="rhombus;whiteSpace=wrap;html=1;" vertex="1" parent="1">
          <mxGeometry x="350" y="480" width="120" height="80" as="geometry" />
        </mxCell>
        <mxCell id="36XTxiDIFt-cpU3XtYKq-62" value="" style="edgeStyle=orthogonalEdgeStyle;rounded=0;orthogonalLoop=1;jettySize=auto;html=1;strokeColor=default;" edge="1" parent="1" source="36XTxiDIFt-cpU3XtYKq-49" target="36XTxiDIFt-cpU3XtYKq-61">
          <mxGeometry relative="1" as="geometry" />
        </mxCell>
        <mxCell id="36XTxiDIFt-cpU3XtYKq-70" value="" style="edgeStyle=orthogonalEdgeStyle;rounded=0;orthogonalLoop=1;jettySize=auto;html=1;strokeColor=default;" edge="1" parent="1" source="36XTxiDIFt-cpU3XtYKq-49" target="36XTxiDIFt-cpU3XtYKq-69">
          <mxGeometry relative="1" as="geometry" />
        </mxCell>
        <mxCell id="36XTxiDIFt-cpU3XtYKq-49" value="시상하부에 낮은 혈당량 정보 전달" style="whiteSpace=wrap;html=1;" vertex="1" parent="1">
          <mxGeometry x="170" y="490" width="120" height="60" as="geometry" />
        </mxCell>
        <mxCell id="36XTxiDIFt-cpU3XtYKq-51" value="참" style="text;html=1;align=center;verticalAlign=middle;resizable=0;points=[];autosize=1;strokeColor=none;fillColor=none;" vertex="1" parent="1">
          <mxGeometry x="300" y="490" width="40" height="30" as="geometry" />
        </mxCell>
        <mxCell id="36XTxiDIFt-cpU3XtYKq-89" value="" style="edgeStyle=orthogonalEdgeStyle;rounded=0;orthogonalLoop=1;jettySize=auto;html=1;strokeColor=default;" edge="1" parent="1" source="36XTxiDIFt-cpU3XtYKq-52" target="36XTxiDIFt-cpU3XtYKq-88">
          <mxGeometry relative="1" as="geometry" />
        </mxCell>
        <mxCell id="36XTxiDIFt-cpU3XtYKq-52" value="시상하부에 높은 혈당량 정보 전달" style="whiteSpace=wrap;html=1;" vertex="1" parent="1">
          <mxGeometry x="530" y="490" width="120" height="60" as="geometry" />
        </mxCell>
        <mxCell id="36XTxiDIFt-cpU3XtYKq-54" value="거짓" style="text;html=1;align=center;verticalAlign=middle;resizable=0;points=[];autosize=1;strokeColor=none;fillColor=none;" vertex="1" parent="1">
          <mxGeometry x="475" y="495" width="50" height="30" as="geometry" />
        </mxCell>
        <mxCell id="36XTxiDIFt-cpU3XtYKq-58" value="" style="edgeStyle=orthogonalEdgeStyle;rounded=0;orthogonalLoop=1;jettySize=auto;html=1;strokeColor=default;" edge="1" parent="1" source="36XTxiDIFt-cpU3XtYKq-57">
          <mxGeometry relative="1" as="geometry">
            <mxPoint x="410" y="240" as="targetPoint" />
          </mxGeometry>
        </mxCell>
        <mxCell id="36XTxiDIFt-cpU3XtYKq-57" value="x" style="shape=hexagon;perimeter=hexagonPerimeter2;whiteSpace=wrap;html=1;fixedSize=1;" vertex="1" parent="1">
          <mxGeometry x="350" y="110" width="120" height="60" as="geometry" />
        </mxCell>
        <mxCell id="36XTxiDIFt-cpU3XtYKq-64" value="" style="edgeStyle=orthogonalEdgeStyle;rounded=0;orthogonalLoop=1;jettySize=auto;html=1;strokeColor=default;" edge="1" parent="1" source="36XTxiDIFt-cpU3XtYKq-61" target="36XTxiDIFt-cpU3XtYKq-63">
          <mxGeometry relative="1" as="geometry" />
        </mxCell>
        <mxCell id="36XTxiDIFt-cpU3XtYKq-61" value="교감신경 활성화" style="whiteSpace=wrap;html=1;" vertex="1" parent="1">
          <mxGeometry x="30" y="584" width="120" height="60" as="geometry" />
        </mxCell>
        <mxCell id="36XTxiDIFt-cpU3XtYKq-72" value="" style="edgeStyle=orthogonalEdgeStyle;rounded=0;orthogonalLoop=1;jettySize=auto;html=1;strokeColor=default;" edge="1" parent="1" source="36XTxiDIFt-cpU3XtYKq-63" target="36XTxiDIFt-cpU3XtYKq-71">
          <mxGeometry relative="1" as="geometry" />
        </mxCell>
        <mxCell id="36XTxiDIFt-cpU3XtYKq-63" value="부신 속질에서 에피네프린 분비" style="whiteSpace=wrap;html=1;" vertex="1" parent="1">
          <mxGeometry x="30" y="714" width="120" height="60" as="geometry" />
        </mxCell>
        <mxCell id="36XTxiDIFt-cpU3XtYKq-73" value="" style="edgeStyle=orthogonalEdgeStyle;rounded=0;orthogonalLoop=1;jettySize=auto;html=1;strokeColor=default;" edge="1" parent="1" source="36XTxiDIFt-cpU3XtYKq-69" target="36XTxiDIFt-cpU3XtYKq-71">
          <mxGeometry relative="1" as="geometry" />
        </mxCell>
        <mxCell id="36XTxiDIFt-cpU3XtYKq-69" value="이자 a세포에서 글루카곤 분비" style="whiteSpace=wrap;html=1;" vertex="1" parent="1">
          <mxGeometry x="170" y="714" width="120" height="60" as="geometry" />
        </mxCell>
        <mxCell id="36XTxiDIFt-cpU3XtYKq-75" value="" style="edgeStyle=orthogonalEdgeStyle;rounded=0;orthogonalLoop=1;jettySize=auto;html=1;strokeColor=default;" edge="1" parent="1" source="36XTxiDIFt-cpU3XtYKq-71" target="36XTxiDIFt-cpU3XtYKq-74">
          <mxGeometry relative="1" as="geometry" />
        </mxCell>
        <mxCell id="36XTxiDIFt-cpU3XtYKq-71" value="간에서 글리코젠을 포도당으로 분해" style="whiteSpace=wrap;html=1;" vertex="1" parent="1">
          <mxGeometry x="100" y="854" width="120" height="60" as="geometry" />
        </mxCell>
        <mxCell id="36XTxiDIFt-cpU3XtYKq-79" value="" style="edgeStyle=orthogonalEdgeStyle;rounded=0;orthogonalLoop=1;jettySize=auto;html=1;strokeColor=default;" edge="1" parent="1" source="36XTxiDIFt-cpU3XtYKq-74" target="36XTxiDIFt-cpU3XtYKq-78">
          <mxGeometry relative="1" as="geometry" />
        </mxCell>
        <mxCell id="36XTxiDIFt-cpU3XtYKq-74" value="x←x+1" style="whiteSpace=wrap;html=1;" vertex="1" parent="1">
          <mxGeometry x="100" y="994" width="120" height="60" as="geometry" />
        </mxCell>
        <mxCell id="36XTxiDIFt-cpU3XtYKq-78" value="70&lt;span style=&quot;color: rgb(32, 33, 36); font-family: &amp;quot;Apple SD Gothic Neo&amp;quot;, arial, sans-serif; font-size: 16px; text-align: left; background-color: rgb(255, 255, 255);&quot;&gt;≤&lt;/span&gt;x&lt;span style=&quot;color: rgb(32, 33, 36); font-family: &amp;quot;Apple SD Gothic Neo&amp;quot;, arial, sans-serif; font-size: 16px; text-align: left; background-color: rgb(255, 255, 255);&quot;&gt;≤&lt;/span&gt;90?" style="rhombus;whiteSpace=wrap;html=1;" vertex="1" parent="1">
          <mxGeometry x="100" y="1134" width="120" height="80" as="geometry" />
        </mxCell>
        <mxCell id="36XTxiDIFt-cpU3XtYKq-85" value="" style="endArrow=classic;html=1;rounded=0;strokeColor=default;edgeStyle=elbowEdgeStyle;" edge="1" parent="1">
          <mxGeometry width="50" height="50" relative="1" as="geometry">
            <mxPoint x="220" y="1174" as="sourcePoint" />
            <mxPoint x="160" y="954" as="targetPoint" />
            <Array as="points">
              <mxPoint x="240" y="1064" />
            </Array>
          </mxGeometry>
        </mxCell>
        <mxCell id="36XTxiDIFt-cpU3XtYKq-86" value="거짓" style="text;html=1;align=center;verticalAlign=middle;resizable=0;points=[];autosize=1;strokeColor=none;fillColor=none;" vertex="1" parent="1">
          <mxGeometry x="235" y="1049" width="50" height="30" as="geometry" />
        </mxCell>
        <mxCell id="36XTxiDIFt-cpU3XtYKq-87" value="끝" style="rounded=1;whiteSpace=wrap;html=1;" vertex="1" parent="1">
          <mxGeometry x="350" y="1214" width="120" height="60" as="geometry" />
        </mxCell>
        <mxCell id="36XTxiDIFt-cpU3XtYKq-91" value="" style="edgeStyle=orthogonalEdgeStyle;rounded=0;orthogonalLoop=1;jettySize=auto;html=1;strokeColor=default;" edge="1" parent="1" source="36XTxiDIFt-cpU3XtYKq-88" target="36XTxiDIFt-cpU3XtYKq-90">
          <mxGeometry relative="1" as="geometry" />
        </mxCell>
        <mxCell id="36XTxiDIFt-cpU3XtYKq-88" value="&amp;nbsp;부교감신경 활성화" style="whiteSpace=wrap;html=1;" vertex="1" parent="1">
          <mxGeometry x="530" y="584" width="120" height="60" as="geometry" />
        </mxCell>
        <mxCell id="36XTxiDIFt-cpU3XtYKq-93" value="" style="edgeStyle=orthogonalEdgeStyle;rounded=0;orthogonalLoop=1;jettySize=auto;html=1;strokeColor=default;" edge="1" parent="1" source="36XTxiDIFt-cpU3XtYKq-90" target="36XTxiDIFt-cpU3XtYKq-92">
          <mxGeometry relative="1" as="geometry" />
        </mxCell>
        <mxCell id="36XTxiDIFt-cpU3XtYKq-98" value="" style="edgeStyle=orthogonalEdgeStyle;rounded=0;orthogonalLoop=1;jettySize=auto;html=1;strokeColor=default;" edge="1" parent="1" source="36XTxiDIFt-cpU3XtYKq-90" target="36XTxiDIFt-cpU3XtYKq-97">
          <mxGeometry relative="1" as="geometry" />
        </mxCell>
        <mxCell id="36XTxiDIFt-cpU3XtYKq-90" value="이자 b세포에서 인슐린 분비" style="whiteSpace=wrap;html=1;" vertex="1" parent="1">
          <mxGeometry x="530" y="724" width="120" height="60" as="geometry" />
        </mxCell>
        <mxCell id="36XTxiDIFt-cpU3XtYKq-92" value="조직세포에서 포도당 흡수" style="whiteSpace=wrap;html=1;" vertex="1" parent="1">
          <mxGeometry x="455" y="844" width="120" height="60" as="geometry" />
        </mxCell>
        <mxCell id="36XTxiDIFt-cpU3XtYKq-97" value="간에서 포도당을 글리코젠으로 분해" style="whiteSpace=wrap;html=1;" vertex="1" parent="1">
          <mxGeometry x="605" y="844" width="120" height="60" as="geometry" />
        </mxCell>
        <mxCell id="36XTxiDIFt-cpU3XtYKq-99" value="" style="edgeStyle=orthogonalEdgeStyle;rounded=0;orthogonalLoop=1;jettySize=auto;html=1;strokeColor=default;" edge="1" parent="1" source="36XTxiDIFt-cpU3XtYKq-100" target="36XTxiDIFt-cpU3XtYKq-101">
          <mxGeometry relative="1" as="geometry" />
        </mxCell>
        <mxCell id="36XTxiDIFt-cpU3XtYKq-100" value="x←x+1" style="whiteSpace=wrap;html=1;" vertex="1" parent="1">
          <mxGeometry x="530" y="984" width="120" height="60" as="geometry" />
        </mxCell>
        <mxCell id="36XTxiDIFt-cpU3XtYKq-101" value="70&lt;span style=&quot;color: rgb(32, 33, 36); font-family: &amp;quot;Apple SD Gothic Neo&amp;quot;, arial, sans-serif; font-size: 16px; text-align: left; background-color: rgb(255, 255, 255);&quot;&gt;≤&lt;/span&gt;x&lt;span style=&quot;color: rgb(32, 33, 36); font-family: &amp;quot;Apple SD Gothic Neo&amp;quot;, arial, sans-serif; font-size: 16px; text-align: left; background-color: rgb(255, 255, 255);&quot;&gt;≤&lt;/span&gt;90?" style="rhombus;whiteSpace=wrap;html=1;" vertex="1" parent="1">
          <mxGeometry x="530" y="1124" width="120" height="80" as="geometry" />
        </mxCell>
        <mxCell id="36XTxiDIFt-cpU3XtYKq-102" value="" style="endArrow=classic;html=1;rounded=0;strokeColor=default;edgeStyle=elbowEdgeStyle;" edge="1" parent="1">
          <mxGeometry width="50" height="50" relative="1" as="geometry">
            <mxPoint x="650" y="1164" as="sourcePoint" />
            <mxPoint x="590" y="964" as="targetPoint" />
            <Array as="points">
              <mxPoint x="670" y="1054" />
            </Array>
          </mxGeometry>
        </mxCell>
        <mxCell id="36XTxiDIFt-cpU3XtYKq-103" value="거짓" style="text;html=1;align=center;verticalAlign=middle;resizable=0;points=[];autosize=1;strokeColor=none;fillColor=none;" vertex="1" parent="1">
          <mxGeometry x="665" y="1039" width="50" height="30" as="geometry" />
        </mxCell>
        <mxCell id="36XTxiDIFt-cpU3XtYKq-104" value="" style="edgeStyle=orthogonalEdgeStyle;rounded=0;orthogonalLoop=1;jettySize=auto;html=1;strokeColor=default;exitX=0.5;exitY=1;exitDx=0;exitDy=0;" edge="1" parent="1" source="36XTxiDIFt-cpU3XtYKq-92">
          <mxGeometry relative="1" as="geometry">
            <mxPoint x="520" y="924" as="sourcePoint" />
            <mxPoint x="590" y="984" as="targetPoint" />
            <Array as="points">
              <mxPoint x="515" y="944" />
              <mxPoint x="590" y="944" />
            </Array>
          </mxGeometry>
        </mxCell>
        <mxCell id="36XTxiDIFt-cpU3XtYKq-105" value="" style="edgeStyle=orthogonalEdgeStyle;rounded=0;orthogonalLoop=1;jettySize=auto;html=1;strokeColor=default;exitX=0.5;exitY=1;exitDx=0;exitDy=0;" edge="1" parent="1" source="36XTxiDIFt-cpU3XtYKq-97">
          <mxGeometry relative="1" as="geometry">
            <mxPoint x="660" y="924" as="sourcePoint" />
            <mxPoint x="590" y="984" as="targetPoint" />
            <Array as="points">
              <mxPoint x="665" y="944" />
              <mxPoint x="590" y="944" />
            </Array>
          </mxGeometry>
        </mxCell>
        <mxCell id="36XTxiDIFt-cpU3XtYKq-108" value="" style="endArrow=classic;html=1;rounded=0;strokeColor=default;elbow=vertical;entryX=0.001;entryY=0.431;entryDx=0;entryDy=0;entryPerimeter=0;" edge="1" parent="1" target="36XTxiDIFt-cpU3XtYKq-87">
          <mxGeometry width="50" height="50" relative="1" as="geometry">
            <mxPoint x="160" y="1214" as="sourcePoint" />
            <mxPoint x="340" y="1260" as="targetPoint" />
            <Array as="points">
              <mxPoint x="160" y="1240" />
            </Array>
          </mxGeometry>
        </mxCell>
        <mxCell id="36XTxiDIFt-cpU3XtYKq-109" value="" style="endArrow=classic;html=1;rounded=0;strokeColor=default;elbow=vertical;exitX=0.5;exitY=1;exitDx=0;exitDy=0;" edge="1" parent="1" source="36XTxiDIFt-cpU3XtYKq-101" target="36XTxiDIFt-cpU3XtYKq-87">
          <mxGeometry width="50" height="50" relative="1" as="geometry">
            <mxPoint x="474.88" y="1248" as="sourcePoint" />
            <mxPoint x="665.0000000000001" y="1273.86" as="targetPoint" />
            <Array as="points">
              <mxPoint x="590" y="1240" />
            </Array>
          </mxGeometry>
        </mxCell>
      </root>
    </mxGraphModel>
  </diagram>
  <diagram id="voekdac1dKnCsgZimbij" name="티록신 분비 조절">
    <mxGraphModel dx="885" dy="792" grid="1" gridSize="10" guides="1" tooltips="1" connect="1" arrows="1" fold="1" page="1" pageScale="1" pageWidth="827" pageHeight="1169" math="0" shadow="0">
      <root>
        <mxCell id="0" />
        <mxCell id="1" parent="0" />
        <mxCell id="0OhIv0oQzZkTBCitj2a1-3" value="" style="edgeStyle=none;rounded=0;orthogonalLoop=1;jettySize=auto;html=1;strokeColor=default;elbow=vertical;" edge="1" parent="1" source="0OhIv0oQzZkTBCitj2a1-1" target="0OhIv0oQzZkTBCitj2a1-2">
          <mxGeometry relative="1" as="geometry" />
        </mxCell>
        <mxCell id="0OhIv0oQzZkTBCitj2a1-1" value="시작" style="rounded=1;whiteSpace=wrap;html=1;" vertex="1" parent="1">
          <mxGeometry x="354" y="50" width="120" height="60" as="geometry" />
        </mxCell>
        <mxCell id="0OhIv0oQzZkTBCitj2a1-5" value="" style="edgeStyle=orthogonalEdgeStyle;rounded=0;orthogonalLoop=1;jettySize=auto;html=1;strokeColor=default;elbow=vertical;" edge="1" parent="1" source="0OhIv0oQzZkTBCitj2a1-2" target="0OhIv0oQzZkTBCitj2a1-4">
          <mxGeometry relative="1" as="geometry" />
        </mxCell>
        <mxCell id="0OhIv0oQzZkTBCitj2a1-14" value="" style="edgeStyle=orthogonalEdgeStyle;rounded=0;orthogonalLoop=1;jettySize=auto;html=1;strokeColor=default;elbow=vertical;" edge="1" parent="1" source="0OhIv0oQzZkTBCitj2a1-2">
          <mxGeometry relative="1" as="geometry">
            <mxPoint x="540" y="230" as="targetPoint" />
          </mxGeometry>
        </mxCell>
        <mxCell id="0OhIv0oQzZkTBCitj2a1-2" value="혈중 티록신 양&lt;br&gt;증가 or 감소?" style="rhombus;whiteSpace=wrap;html=1;" vertex="1" parent="1">
          <mxGeometry x="354" y="140" width="120" height="80" as="geometry" />
        </mxCell>
        <mxCell id="0OhIv0oQzZkTBCitj2a1-7" value="" style="edgeStyle=orthogonalEdgeStyle;rounded=0;orthogonalLoop=1;jettySize=auto;html=1;strokeColor=default;elbow=vertical;" edge="1" parent="1" source="0OhIv0oQzZkTBCitj2a1-4" target="0OhIv0oQzZkTBCitj2a1-6">
          <mxGeometry relative="1" as="geometry" />
        </mxCell>
        <mxCell id="0OhIv0oQzZkTBCitj2a1-4" value="시상하부에서 TRH 분비" style="whiteSpace=wrap;html=1;" vertex="1" parent="1">
          <mxGeometry x="230" y="230" width="120" height="60" as="geometry" />
        </mxCell>
        <mxCell id="0OhIv0oQzZkTBCitj2a1-9" value="" style="edgeStyle=orthogonalEdgeStyle;rounded=0;orthogonalLoop=1;jettySize=auto;html=1;strokeColor=default;elbow=vertical;" edge="1" parent="1" source="0OhIv0oQzZkTBCitj2a1-6" target="0OhIv0oQzZkTBCitj2a1-8">
          <mxGeometry relative="1" as="geometry" />
        </mxCell>
        <mxCell id="0OhIv0oQzZkTBCitj2a1-6" value="뇌하수체 전엽에서 TSH 분비" style="whiteSpace=wrap;html=1;" vertex="1" parent="1">
          <mxGeometry x="230" y="370" width="120" height="60" as="geometry" />
        </mxCell>
        <mxCell id="0OhIv0oQzZkTBCitj2a1-11" value="" style="edgeStyle=orthogonalEdgeStyle;rounded=0;orthogonalLoop=1;jettySize=auto;html=1;strokeColor=default;elbow=vertical;" edge="1" parent="1" source="0OhIv0oQzZkTBCitj2a1-8" target="0OhIv0oQzZkTBCitj2a1-10">
          <mxGeometry relative="1" as="geometry" />
        </mxCell>
        <mxCell id="0OhIv0oQzZkTBCitj2a1-8" value="갑상샘에서 티록신 분비" style="whiteSpace=wrap;html=1;" vertex="1" parent="1">
          <mxGeometry x="230" y="510" width="120" height="60" as="geometry" />
        </mxCell>
        <mxCell id="0OhIv0oQzZkTBCitj2a1-10" value="혈중 티록신 농도 증가" style="whiteSpace=wrap;html=1;" vertex="1" parent="1">
          <mxGeometry x="230" y="650" width="120" height="60" as="geometry" />
        </mxCell>
        <mxCell id="0OhIv0oQzZkTBCitj2a1-12" value="감소" style="text;html=1;align=center;verticalAlign=middle;resizable=0;points=[];autosize=1;strokeColor=none;fillColor=none;" vertex="1" parent="1">
          <mxGeometry x="304" y="150" width="50" height="30" as="geometry" />
        </mxCell>
        <mxCell id="0OhIv0oQzZkTBCitj2a1-15" value="증가" style="text;html=1;align=center;verticalAlign=middle;resizable=0;points=[];autosize=1;strokeColor=none;fillColor=none;" vertex="1" parent="1">
          <mxGeometry x="475" y="155" width="50" height="30" as="geometry" />
        </mxCell>
        <mxCell id="0OhIv0oQzZkTBCitj2a1-17" value="" style="edgeStyle=orthogonalEdgeStyle;rounded=0;orthogonalLoop=1;jettySize=auto;html=1;strokeColor=default;elbow=vertical;" edge="1" parent="1" source="0OhIv0oQzZkTBCitj2a1-18" target="0OhIv0oQzZkTBCitj2a1-20">
          <mxGeometry relative="1" as="geometry" />
        </mxCell>
        <mxCell id="0OhIv0oQzZkTBCitj2a1-18" value="시상하부에서 TRH 분비 억제" style="whiteSpace=wrap;html=1;" vertex="1" parent="1">
          <mxGeometry x="480" y="230" width="120" height="60" as="geometry" />
        </mxCell>
        <mxCell id="0OhIv0oQzZkTBCitj2a1-19" value="" style="edgeStyle=orthogonalEdgeStyle;rounded=0;orthogonalLoop=1;jettySize=auto;html=1;strokeColor=default;elbow=vertical;" edge="1" parent="1" source="0OhIv0oQzZkTBCitj2a1-20" target="0OhIv0oQzZkTBCitj2a1-22">
          <mxGeometry relative="1" as="geometry" />
        </mxCell>
        <mxCell id="0OhIv0oQzZkTBCitj2a1-20" value="뇌하수체 전엽에서 TSH 분비 억제" style="whiteSpace=wrap;html=1;" vertex="1" parent="1">
          <mxGeometry x="480" y="370" width="120" height="60" as="geometry" />
        </mxCell>
        <mxCell id="0OhIv0oQzZkTBCitj2a1-21" value="" style="edgeStyle=orthogonalEdgeStyle;rounded=0;orthogonalLoop=1;jettySize=auto;html=1;strokeColor=default;elbow=vertical;" edge="1" parent="1" source="0OhIv0oQzZkTBCitj2a1-22" target="0OhIv0oQzZkTBCitj2a1-23">
          <mxGeometry relative="1" as="geometry" />
        </mxCell>
        <mxCell id="0OhIv0oQzZkTBCitj2a1-22" value="갑상샘에서 티록신 분비 억제" style="whiteSpace=wrap;html=1;" vertex="1" parent="1">
          <mxGeometry x="480" y="510" width="120" height="60" as="geometry" />
        </mxCell>
        <mxCell id="0OhIv0oQzZkTBCitj2a1-23" value="혈중 티록신 농도 감소" style="whiteSpace=wrap;html=1;" vertex="1" parent="1">
          <mxGeometry x="480" y="650" width="120" height="60" as="geometry" />
        </mxCell>
        <mxCell id="0OhIv0oQzZkTBCitj2a1-25" value="" style="endArrow=classic;html=1;rounded=0;strokeColor=default;elbow=vertical;edgeStyle=orthogonalEdgeStyle;entryX=0.5;entryY=1;entryDx=0;entryDy=0;" edge="1" parent="1" target="0OhIv0oQzZkTBCitj2a1-2">
          <mxGeometry width="50" height="50" relative="1" as="geometry">
            <mxPoint x="350" y="680" as="sourcePoint" />
            <mxPoint x="400" y="630" as="targetPoint" />
          </mxGeometry>
        </mxCell>
        <mxCell id="0OhIv0oQzZkTBCitj2a1-26" value="" style="endArrow=classic;html=1;rounded=0;strokeColor=default;elbow=vertical;edgeStyle=orthogonalEdgeStyle;exitX=0;exitY=0.5;exitDx=0;exitDy=0;" edge="1" parent="1" source="0OhIv0oQzZkTBCitj2a1-23">
          <mxGeometry width="50" height="50" relative="1" as="geometry">
            <mxPoint x="464" y="680" as="sourcePoint" />
            <mxPoint x="414" y="220" as="targetPoint" />
          </mxGeometry>
        </mxCell>
      </root>
    </mxGraphModel>
  </diagram>
  <diagram id="ev4K4wv7p7zLoNf4mg7W" name="체온 조절">
    <mxGraphModel dx="2087" dy="1173" grid="1" gridSize="10" guides="1" tooltips="1" connect="1" arrows="1" fold="1" page="1" pageScale="1" pageWidth="827" pageHeight="1169" math="0" shadow="0">
      <root>
        <mxCell id="0" />
        <mxCell id="1" parent="0" />
        <mxCell id="nDe7f9_Xg3ymzGbjaNX4-2" value="" style="edgeStyle=orthogonalEdgeStyle;rounded=0;orthogonalLoop=1;jettySize=auto;html=1;strokeColor=default;elbow=vertical;" edge="1" parent="1" source="cPbRAQQLIJdoVi4jvQCx-1" target="nDe7f9_Xg3ymzGbjaNX4-1">
          <mxGeometry relative="1" as="geometry" />
        </mxCell>
        <mxCell id="cPbRAQQLIJdoVi4jvQCx-1" value="시작" style="rounded=1;whiteSpace=wrap;html=1;" vertex="1" parent="1">
          <mxGeometry x="334" y="10" width="120" height="60" as="geometry" />
        </mxCell>
        <mxCell id="nDe7f9_Xg3ymzGbjaNX4-4" value="" style="edgeStyle=orthogonalEdgeStyle;rounded=0;orthogonalLoop=1;jettySize=auto;html=1;strokeColor=default;elbow=vertical;" edge="1" parent="1" source="nDe7f9_Xg3ymzGbjaNX4-1" target="nDe7f9_Xg3ymzGbjaNX4-3">
          <mxGeometry relative="1" as="geometry" />
        </mxCell>
        <mxCell id="nDe7f9_Xg3ymzGbjaNX4-1" value="t" style="shape=hexagon;perimeter=hexagonPerimeter2;whiteSpace=wrap;html=1;fixedSize=1;rounded=0;" vertex="1" parent="1">
          <mxGeometry x="334" y="140" width="120" height="60" as="geometry" />
        </mxCell>
        <mxCell id="nDe7f9_Xg3ymzGbjaNX4-3" value="체온 t 입력" style="shape=parallelogram;perimeter=parallelogramPerimeter;whiteSpace=wrap;html=1;fixedSize=1;rounded=0;" vertex="1" parent="1">
          <mxGeometry x="334" y="270" width="120" height="60" as="geometry" />
        </mxCell>
        <mxCell id="nDe7f9_Xg3ymzGbjaNX4-8" value="" style="edgeStyle=orthogonalEdgeStyle;rounded=0;orthogonalLoop=1;jettySize=auto;html=1;strokeColor=default;elbow=vertical;" edge="1" parent="1" source="nDe7f9_Xg3ymzGbjaNX4-5" target="nDe7f9_Xg3ymzGbjaNX4-7">
          <mxGeometry relative="1" as="geometry" />
        </mxCell>
        <mxCell id="nDe7f9_Xg3ymzGbjaNX4-10" value="" style="edgeStyle=orthogonalEdgeStyle;rounded=0;orthogonalLoop=1;jettySize=auto;html=1;strokeColor=default;elbow=vertical;" edge="1" parent="1" source="nDe7f9_Xg3ymzGbjaNX4-5" target="nDe7f9_Xg3ymzGbjaNX4-9">
          <mxGeometry relative="1" as="geometry" />
        </mxCell>
        <mxCell id="nDe7f9_Xg3ymzGbjaNX4-5" value="t&amp;gt;36.5?" style="rhombus;whiteSpace=wrap;html=1;" vertex="1" parent="1">
          <mxGeometry x="334" y="530" width="120" height="80" as="geometry" />
        </mxCell>
        <mxCell id="nDe7f9_Xg3ymzGbjaNX4-12" value="" style="edgeStyle=orthogonalEdgeStyle;rounded=0;orthogonalLoop=1;jettySize=auto;html=1;strokeColor=default;elbow=vertical;" edge="1" parent="1" source="nDe7f9_Xg3ymzGbjaNX4-7" target="nDe7f9_Xg3ymzGbjaNX4-11">
          <mxGeometry relative="1" as="geometry" />
        </mxCell>
        <mxCell id="nDe7f9_Xg3ymzGbjaNX4-7" value="간뇌 시상하부에 저온자극 전달" style="whiteSpace=wrap;html=1;" vertex="1" parent="1">
          <mxGeometry x="120" y="540" width="120" height="60" as="geometry" />
        </mxCell>
        <mxCell id="-3TJG1gPhYsk00IlvZi7-84" value="" style="edgeStyle=orthogonalEdgeStyle;rounded=0;orthogonalLoop=1;jettySize=auto;html=1;strokeColor=default;elbow=vertical;" edge="1" parent="1" source="nDe7f9_Xg3ymzGbjaNX4-9" target="-3TJG1gPhYsk00IlvZi7-68">
          <mxGeometry relative="1" as="geometry" />
        </mxCell>
        <mxCell id="nDe7f9_Xg3ymzGbjaNX4-9" value="간뇌 시상하부에 고온자극 전달" style="whiteSpace=wrap;html=1;" vertex="1" parent="1">
          <mxGeometry x="560" y="540" width="120" height="60" as="geometry" />
        </mxCell>
        <mxCell id="nDe7f9_Xg3ymzGbjaNX4-14" value="" style="edgeStyle=orthogonalEdgeStyle;rounded=0;orthogonalLoop=1;jettySize=auto;html=1;strokeColor=default;elbow=vertical;" edge="1" parent="1" source="nDe7f9_Xg3ymzGbjaNX4-11" target="nDe7f9_Xg3ymzGbjaNX4-13">
          <mxGeometry relative="1" as="geometry" />
        </mxCell>
        <mxCell id="-3TJG1gPhYsk00IlvZi7-88" value="" style="edgeStyle=orthogonalEdgeStyle;rounded=0;orthogonalLoop=1;jettySize=auto;html=1;strokeColor=default;elbow=vertical;" edge="1" parent="1" source="nDe7f9_Xg3ymzGbjaNX4-11" target="nDe7f9_Xg3ymzGbjaNX4-15">
          <mxGeometry relative="1" as="geometry" />
        </mxCell>
        <mxCell id="nDe7f9_Xg3ymzGbjaNX4-11" value="교감신경 작용" style="whiteSpace=wrap;html=1;" vertex="1" parent="1">
          <mxGeometry x="120" y="660" width="120" height="60" as="geometry" />
        </mxCell>
        <mxCell id="-3TJG1gPhYsk00IlvZi7-2" value="" style="edgeStyle=orthogonalEdgeStyle;rounded=0;orthogonalLoop=1;jettySize=auto;html=1;strokeColor=default;elbow=vertical;" edge="1" parent="1" source="nDe7f9_Xg3ymzGbjaNX4-13" target="-3TJG1gPhYsk00IlvZi7-1">
          <mxGeometry relative="1" as="geometry" />
        </mxCell>
        <mxCell id="-3TJG1gPhYsk00IlvZi7-9" value="열 발산량 감소" style="edgeLabel;html=1;align=center;verticalAlign=middle;resizable=0;points=[];" vertex="1" connectable="0" parent="-3TJG1gPhYsk00IlvZi7-2">
          <mxGeometry x="-0.1264" y="-2" relative="1" as="geometry">
            <mxPoint x="4" y="-2" as="offset" />
          </mxGeometry>
        </mxCell>
        <mxCell id="nDe7f9_Xg3ymzGbjaNX4-13" value="피부 근처 혈관 수축" style="whiteSpace=wrap;html=1;" vertex="1" parent="1">
          <mxGeometry x="120" y="800" width="120" height="60" as="geometry" />
        </mxCell>
        <mxCell id="nDe7f9_Xg3ymzGbjaNX4-18" value="" style="edgeStyle=orthogonalEdgeStyle;rounded=0;orthogonalLoop=1;jettySize=auto;html=1;strokeColor=default;elbow=vertical;" edge="1" parent="1" source="nDe7f9_Xg3ymzGbjaNX4-15" target="nDe7f9_Xg3ymzGbjaNX4-17">
          <mxGeometry relative="1" as="geometry" />
        </mxCell>
        <mxCell id="nDe7f9_Xg3ymzGbjaNX4-15" value="부신 속질에서 에피네프린 분비" style="whiteSpace=wrap;html=1;" vertex="1" parent="1">
          <mxGeometry x="-80" y="660" width="120" height="60" as="geometry" />
        </mxCell>
        <mxCell id="-3TJG1gPhYsk00IlvZi7-11" value="" style="edgeStyle=orthogonalEdgeStyle;rounded=0;orthogonalLoop=1;jettySize=auto;html=1;strokeColor=default;elbow=vertical;entryX=0.5;entryY=0;entryDx=0;entryDy=0;" edge="1" parent="1" source="nDe7f9_Xg3ymzGbjaNX4-17" target="-3TJG1gPhYsk00IlvZi7-1">
          <mxGeometry relative="1" as="geometry">
            <mxPoint x="-120" y="940" as="targetPoint" />
            <Array as="points">
              <mxPoint x="-20" y="910" />
              <mxPoint x="180" y="910" />
            </Array>
          </mxGeometry>
        </mxCell>
        <mxCell id="nDe7f9_Xg3ymzGbjaNX4-17" value="간에서 물질대사 촉진" style="whiteSpace=wrap;html=1;" vertex="1" parent="1">
          <mxGeometry x="-80" y="800" width="120" height="60" as="geometry" />
        </mxCell>
        <mxCell id="nDe7f9_Xg3ymzGbjaNX4-36" value="거짓" style="text;html=1;align=center;verticalAlign=middle;resizable=0;points=[];autosize=1;strokeColor=none;fillColor=none;" vertex="1" parent="1">
          <mxGeometry x="285" y="535" width="50" height="30" as="geometry" />
        </mxCell>
        <mxCell id="nDe7f9_Xg3ymzGbjaNX4-37" value="참" style="text;html=1;align=center;verticalAlign=middle;resizable=0;points=[];autosize=1;strokeColor=none;fillColor=none;" vertex="1" parent="1">
          <mxGeometry x="454" y="535" width="40" height="30" as="geometry" />
        </mxCell>
        <mxCell id="nDe7f9_Xg3ymzGbjaNX4-43" value="" style="edgeStyle=orthogonalEdgeStyle;rounded=0;orthogonalLoop=1;jettySize=auto;html=1;strokeColor=default;elbow=vertical;" edge="1" parent="1" source="nDe7f9_Xg3ymzGbjaNX4-38" target="nDe7f9_Xg3ymzGbjaNX4-42">
          <mxGeometry relative="1" as="geometry" />
        </mxCell>
        <mxCell id="nDe7f9_Xg3ymzGbjaNX4-38" value="t=36.5?" style="rhombus;whiteSpace=wrap;html=1;rounded=0;" vertex="1" parent="1">
          <mxGeometry x="334" y="380" width="120" height="80" as="geometry" />
        </mxCell>
        <mxCell id="nDe7f9_Xg3ymzGbjaNX4-40" value="" style="edgeStyle=orthogonalEdgeStyle;rounded=0;orthogonalLoop=1;jettySize=auto;html=1;strokeColor=default;elbow=vertical;endArrow=none;entryX=0.5;entryY=0;entryDx=0;entryDy=0;" edge="1" parent="1" source="nDe7f9_Xg3ymzGbjaNX4-3" target="nDe7f9_Xg3ymzGbjaNX4-38">
          <mxGeometry relative="1" as="geometry">
            <mxPoint x="140" y="400" as="sourcePoint" />
            <mxPoint x="394.0588235294117" y="530.0392156862745" as="targetPoint" />
          </mxGeometry>
        </mxCell>
        <mxCell id="nDe7f9_Xg3ymzGbjaNX4-42" value="끝" style="whiteSpace=wrap;html=1;rounded=1;" vertex="1" parent="1">
          <mxGeometry x="530" y="390" width="120" height="60" as="geometry" />
        </mxCell>
        <mxCell id="nDe7f9_Xg3ymzGbjaNX4-47" value="" style="endArrow=classic;startArrow=classic;html=1;rounded=0;strokeColor=default;elbow=vertical;entryX=0.5;entryY=1;entryDx=0;entryDy=0;" edge="1" parent="1" target="nDe7f9_Xg3ymzGbjaNX4-38">
          <mxGeometry width="50" height="50" relative="1" as="geometry">
            <mxPoint x="394" y="530" as="sourcePoint" />
            <mxPoint x="444" y="480" as="targetPoint" />
          </mxGeometry>
        </mxCell>
        <mxCell id="-3TJG1gPhYsk00IlvZi7-1" value="t←t+0.1" style="whiteSpace=wrap;html=1;" vertex="1" parent="1">
          <mxGeometry x="120" y="940" width="120" height="60" as="geometry" />
        </mxCell>
        <mxCell id="-3TJG1gPhYsk00IlvZi7-14" value="열 발생량 증가" style="edgeLabel;html=1;align=center;verticalAlign=middle;resizable=0;points=[];" vertex="1" connectable="0" parent="1">
          <mxGeometry x="69.99724137931037" y="910" as="geometry" />
        </mxCell>
        <mxCell id="-3TJG1gPhYsk00IlvZi7-19" value="" style="edgeStyle=orthogonalEdgeStyle;rounded=0;orthogonalLoop=1;jettySize=auto;html=1;strokeColor=default;elbow=vertical;" edge="1" parent="1" source="-3TJG1gPhYsk00IlvZi7-16" target="-3TJG1gPhYsk00IlvZi7-18">
          <mxGeometry relative="1" as="geometry" />
        </mxCell>
        <mxCell id="-3TJG1gPhYsk00IlvZi7-16" value="간뇌 시상하부에서 TRH 분비량 증가" style="rounded=0;whiteSpace=wrap;html=1;" vertex="1" parent="1">
          <mxGeometry x="-270" y="540" width="120" height="60" as="geometry" />
        </mxCell>
        <mxCell id="-3TJG1gPhYsk00IlvZi7-21" value="" style="edgeStyle=orthogonalEdgeStyle;rounded=0;orthogonalLoop=1;jettySize=auto;html=1;strokeColor=default;elbow=vertical;" edge="1" parent="1" source="-3TJG1gPhYsk00IlvZi7-18" target="-3TJG1gPhYsk00IlvZi7-20">
          <mxGeometry relative="1" as="geometry" />
        </mxCell>
        <mxCell id="-3TJG1gPhYsk00IlvZi7-18" value="뇌하수체에서 TSH 분비량 증가" style="whiteSpace=wrap;html=1;rounded=0;" vertex="1" parent="1">
          <mxGeometry x="-270" y="660" width="120" height="60" as="geometry" />
        </mxCell>
        <mxCell id="-3TJG1gPhYsk00IlvZi7-89" value="" style="edgeStyle=orthogonalEdgeStyle;rounded=0;orthogonalLoop=1;jettySize=auto;html=1;strokeColor=default;elbow=vertical;" edge="1" parent="1" source="-3TJG1gPhYsk00IlvZi7-20" target="nDe7f9_Xg3ymzGbjaNX4-17">
          <mxGeometry relative="1" as="geometry" />
        </mxCell>
        <mxCell id="-3TJG1gPhYsk00IlvZi7-20" value="갑상샘에서 티록신 분비량 증가" style="whiteSpace=wrap;html=1;rounded=0;" vertex="1" parent="1">
          <mxGeometry x="-270" y="800" width="120" height="60" as="geometry" />
        </mxCell>
        <mxCell id="-3TJG1gPhYsk00IlvZi7-66" value="" style="edgeStyle=orthogonalEdgeStyle;rounded=0;orthogonalLoop=1;jettySize=auto;html=1;strokeColor=default;elbow=vertical;" edge="1" parent="1" source="-3TJG1gPhYsk00IlvZi7-68" target="-3TJG1gPhYsk00IlvZi7-71">
          <mxGeometry relative="1" as="geometry" />
        </mxCell>
        <mxCell id="-3TJG1gPhYsk00IlvZi7-68" value="교감신경 작용 완화" style="whiteSpace=wrap;html=1;" vertex="1" parent="1">
          <mxGeometry x="560" y="670" width="120" height="60" as="geometry" />
        </mxCell>
        <mxCell id="-3TJG1gPhYsk00IlvZi7-69" value="" style="edgeStyle=orthogonalEdgeStyle;rounded=0;orthogonalLoop=1;jettySize=auto;html=1;strokeColor=default;elbow=vertical;" edge="1" parent="1" source="-3TJG1gPhYsk00IlvZi7-71" target="-3TJG1gPhYsk00IlvZi7-76">
          <mxGeometry relative="1" as="geometry">
            <Array as="points">
              <mxPoint x="620" y="930" />
              <mxPoint x="720" y="930" />
            </Array>
          </mxGeometry>
        </mxCell>
        <mxCell id="-3TJG1gPhYsk00IlvZi7-70" value="열 발산량 증가" style="edgeLabel;html=1;align=center;verticalAlign=middle;resizable=0;points=[];" vertex="1" connectable="0" parent="-3TJG1gPhYsk00IlvZi7-69">
          <mxGeometry x="-0.1264" y="-2" relative="1" as="geometry">
            <mxPoint x="18" y="-2" as="offset" />
          </mxGeometry>
        </mxCell>
        <mxCell id="-3TJG1gPhYsk00IlvZi7-71" value="피부 근처 혈관 확장" style="whiteSpace=wrap;html=1;" vertex="1" parent="1">
          <mxGeometry x="560" y="810" width="120" height="60" as="geometry" />
        </mxCell>
        <mxCell id="-3TJG1gPhYsk00IlvZi7-74" value="" style="edgeStyle=orthogonalEdgeStyle;rounded=0;orthogonalLoop=1;jettySize=auto;html=1;strokeColor=default;elbow=vertical;entryX=0.5;entryY=0;entryDx=0;entryDy=0;" edge="1" parent="1" source="-3TJG1gPhYsk00IlvZi7-75" target="-3TJG1gPhYsk00IlvZi7-76">
          <mxGeometry relative="1" as="geometry">
            <mxPoint x="710" y="930" as="targetPoint" />
            <Array as="points">
              <mxPoint x="720" y="930" />
            </Array>
          </mxGeometry>
        </mxCell>
        <mxCell id="-3TJG1gPhYsk00IlvZi7-75" value="간에서 물질대사 억제" style="whiteSpace=wrap;html=1;" vertex="1" parent="1">
          <mxGeometry x="840" y="880" width="120" height="60" as="geometry" />
        </mxCell>
        <mxCell id="-3TJG1gPhYsk00IlvZi7-76" value="t←t-0.1" style="whiteSpace=wrap;html=1;" vertex="1" parent="1">
          <mxGeometry x="660" y="980" width="120" height="60" as="geometry" />
        </mxCell>
        <mxCell id="-3TJG1gPhYsk00IlvZi7-77" value="열 발생량 감소" style="edgeLabel;html=1;align=center;verticalAlign=middle;resizable=0;points=[];" vertex="1" connectable="0" parent="1">
          <mxGeometry x="769.9972413793104" y="930" as="geometry" />
        </mxCell>
        <mxCell id="-3TJG1gPhYsk00IlvZi7-78" value="" style="edgeStyle=orthogonalEdgeStyle;rounded=0;orthogonalLoop=1;jettySize=auto;html=1;strokeColor=default;elbow=vertical;exitX=1;exitY=0.5;exitDx=0;exitDy=0;" edge="1" parent="1" source="-3TJG1gPhYsk00IlvZi7-79" target="-3TJG1gPhYsk00IlvZi7-81">
          <mxGeometry relative="1" as="geometry">
            <Array as="points">
              <mxPoint x="900" y="570" />
            </Array>
          </mxGeometry>
        </mxCell>
        <mxCell id="-3TJG1gPhYsk00IlvZi7-79" value="간뇌 시상하부에서 TRH 분비량 증가" style="rounded=0;whiteSpace=wrap;html=1;" vertex="1" parent="1">
          <mxGeometry x="840" y="540" width="120" height="60" as="geometry" />
        </mxCell>
        <mxCell id="-3TJG1gPhYsk00IlvZi7-80" value="" style="edgeStyle=orthogonalEdgeStyle;rounded=0;orthogonalLoop=1;jettySize=auto;html=1;strokeColor=default;elbow=vertical;" edge="1" parent="1" source="-3TJG1gPhYsk00IlvZi7-81" target="-3TJG1gPhYsk00IlvZi7-82">
          <mxGeometry relative="1" as="geometry" />
        </mxCell>
        <mxCell id="-3TJG1gPhYsk00IlvZi7-81" value="뇌하수체에서 TSH 분비량 증가" style="whiteSpace=wrap;html=1;rounded=0;" vertex="1" parent="1">
          <mxGeometry x="840" y="660" width="120" height="60" as="geometry" />
        </mxCell>
        <mxCell id="-3TJG1gPhYsk00IlvZi7-82" value="갑상샘에서 티록신 분비량 증가" style="whiteSpace=wrap;html=1;rounded=0;" vertex="1" parent="1">
          <mxGeometry x="840" y="770" width="120" height="60" as="geometry" />
        </mxCell>
        <mxCell id="-3TJG1gPhYsk00IlvZi7-83" value="" style="endArrow=classic;html=1;rounded=0;strokeColor=default;elbow=vertical;edgeStyle=orthogonalEdgeStyle;exitX=0.5;exitY=1;exitDx=0;exitDy=0;entryX=0.5;entryY=0;entryDx=0;entryDy=0;" edge="1" parent="1" source="-3TJG1gPhYsk00IlvZi7-82" target="-3TJG1gPhYsk00IlvZi7-75">
          <mxGeometry width="50" height="50" relative="1" as="geometry">
            <mxPoint x="770" y="830" as="sourcePoint" />
            <mxPoint x="790" y="830" as="targetPoint" />
          </mxGeometry>
        </mxCell>
        <mxCell id="-3TJG1gPhYsk00IlvZi7-85" value="" style="endArrow=classic;html=1;rounded=0;strokeColor=default;elbow=vertical;entryX=0;entryY=0.5;entryDx=0;entryDy=0;" edge="1" parent="1" target="-3TJG1gPhYsk00IlvZi7-79">
          <mxGeometry width="50" height="50" relative="1" as="geometry">
            <mxPoint x="680" y="570" as="sourcePoint" />
            <mxPoint x="740" y="525" as="targetPoint" />
          </mxGeometry>
        </mxCell>
        <mxCell id="-3TJG1gPhYsk00IlvZi7-86" value="" style="endArrow=classic;html=1;rounded=0;strokeColor=default;elbow=vertical;exitX=0.5;exitY=1;exitDx=0;exitDy=0;entryX=0.5;entryY=1;entryDx=0;entryDy=0;edgeStyle=orthogonalEdgeStyle;" edge="1" parent="1" source="-3TJG1gPhYsk00IlvZi7-1" target="nDe7f9_Xg3ymzGbjaNX4-5">
          <mxGeometry width="50" height="50" relative="1" as="geometry">
            <mxPoint x="-70" y="1090" as="sourcePoint" />
            <mxPoint x="-20" y="1040" as="targetPoint" />
          </mxGeometry>
        </mxCell>
        <mxCell id="-3TJG1gPhYsk00IlvZi7-87" value="" style="endArrow=classic;html=1;rounded=0;strokeColor=default;elbow=vertical;exitX=0;exitY=0.5;exitDx=0;exitDy=0;entryX=0.5;entryY=1;entryDx=0;entryDy=0;edgeStyle=orthogonalEdgeStyle;" edge="1" parent="1" source="-3TJG1gPhYsk00IlvZi7-76" target="nDe7f9_Xg3ymzGbjaNX4-5">
          <mxGeometry width="50" height="50" relative="1" as="geometry">
            <mxPoint x="730" y="950" as="sourcePoint" />
            <mxPoint x="780" y="900" as="targetPoint" />
          </mxGeometry>
        </mxCell>
        <mxCell id="-3TJG1gPhYsk00IlvZi7-90" value="" style="endArrow=classic;html=1;rounded=0;strokeColor=default;elbow=vertical;exitX=0;exitY=0.5;exitDx=0;exitDy=0;entryX=1;entryY=0.5;entryDx=0;entryDy=0;" edge="1" parent="1" source="nDe7f9_Xg3ymzGbjaNX4-7" target="-3TJG1gPhYsk00IlvZi7-16">
          <mxGeometry width="50" height="50" relative="1" as="geometry">
            <mxPoint x="-30" y="595" as="sourcePoint" />
            <mxPoint x="20" y="545" as="targetPoint" />
          </mxGeometry>
        </mxCell>
      </root>
    </mxGraphModel>
  </diagram>
</mxfile>
